#!OML:ASF E:\Steps\Project 1\Capture day 1\Session 2\Subject.ASF
:FULLY-SPECIFIED
:DEGREES
568
root 9.03386 16.3754 3.38713 -161.393 0.950354 177.798
lowerback -18.107 -0.742575 -6.11351
upperback 3.31948 0.499513 -0.297805
thorax 13.9684 -0.246995 3.29531
lowerneck -2.01938 -1.24302 -1.27582
upperneck 19.8003 -3.93265 4.10393
head 6.43732 -2.26824 1.21796
rclavicle 3.27995e-015 -6.95746e-016
rhumerus -30.2915 -14.9134 -80.1863
rradius 41.5173
rwrist -5.47294
rhand -6.65086 -52.2131
rfingers 7.12502
rthumb 19.2066 -81.2847
lclavicle 3.27995e-015 -6.95746e-016
lhumerus -33.0402 4.88114 80.3469
lradius 26.2971
lwrist -4.4941
lhand -19.8246 -12.9631
lfingers 7.12502
lthumb 6.50917 16.9169
rfemur -20.7393 8.3826 20.7369
rtibia 11.0159
rfoot -17.2603 -8.5449
rtoes -30.469
lfemur -73.0799 -2.97976 -22.1892
ltibia 83.5937
lfoot -16.6919 5.22815
ltoes -23.4005
569
root 9.03537 16.3764 3.32255 -161.404 1.09203 177.676
lowerback -18.0285 -0.690313 -6.21555
upperback 3.38317 0.609141 -0.412018
thorax 13.9865 -0.199029 3.25609
lowerneck -2.46391 -1.12769 -1.18543
upperneck 20.0954 -3.78343 4.05418
head 6.60279 -2.18283 1.18911
rclavicle -1.63997e-015 5.96354e-015
rhumerus -29.8899 -14.3696 -80.636
rradius 41.8438
rwrist -5.57386
rhand -6.88334 -53.2417
rfingers 7.12502
rthumb 18.983 -82.3353
lclavicle -1.63997e-015 5.96354e-015
lhumerus -32.7925 4.83817 80.2473
lradius 25.9685
lwrist -4.25557
lhand -20.4007 -13.4329
lfingers 7.12502
lthumb 5.95297 16.4635
rfemur -20.5232 8.47059 20.6348
rtibia 11.078
rfoot -17.5409 -8.61792
rtoes -31.132
lfemur -73.5342 -2.98241 -22.1463
ltibia 82.2098
lfoot -16.7933 5.42284
ltoes -22.2741
570
root 9.03582 16.3744 3.25458 -161.422 1.21398 177.559
lowerback -18.0172 -0.684243 -6.34972
upperback 3.44649 0.661369 -0.472691
thorax 14.0502 -0.185134 3.27925
lowerneck -2.84438 -1.06932 -1.32497
upperneck 20.3768 -3.70355 4.04571
head 6.75939 -2.14702 1.20907
rclavicle 4.37326e-015 -1.03368e-014
rhumerus -29.4826 -13.7033 -81.0043
rradius 42.0702
rwrist -5.75776
rhand -7.10097 -54.4107
rfingers 7.12502
rthumb 18.7737 -83.5247
lclavicle 4.37326e-015 -1.03368e-014
lhumerus -32.7986 5.03913 80.1244
lradius 25.7542
lwrist -4.21799
lhand -20.8078 -13.6861
lfingers 7.12502
lthumb 5.55993 16.2209
rfemur -20.261 8.3815 20.5593
rtibia 11.0764
rfoot -17.7516 -8.64803
rtoes -32.3368
lfemur -73.9077 -2.98182 -22.0751
ltibia 80.7485
lfoot -16.9786 5.41121
ltoes -20.1203
571
root 9.03729 16.3734 3.19063 -161.324 1.31625 177.596
lowerback -18.0562 -0.648712 -6.37855
upperback 3.42072 0.718055 -0.474277
thorax 14.0371 -0.160382 3.31108
lowerneck -2.82086 -1.12106 -1.63227
upperneck 20.4508 -3.8198 4.30963
head 6.79178 -2.21077 1.33731
rclavicle -5.2181e-015 -1.05356e-014
rhumerus -29.1643 -13.1433 -81.2343
rradius 42.1363
rwrist -5.78337
rhand -7.24628 -54.5382
rfingers 7.12502
rthumb 18.6339 -83.6657
lclavicle -5.2181e-015 -1.05356e-014
lhumerus -33.0482 5.68108 79.8949
lradius 25.674
lwrist -4.59741
lhand -20.8962 -13.6856
lfingers 7.12502
lthumb 5.47456 16.2237
rfemur -20.0664 8.49987 20.6256
rtibia 10.9876
rfoot -17.8559 -8.77876
rtoes -32.9128
lfemur -74.4461 -2.91251 -21.8322
ltibia 79.4048
lfoot -17.0432 5.47088
ltoes -19.0281
572
root 9.03925 16.3723 3.1239 -161.258 1.40727 177.694
lowerback -18.0443 -0.572494 -6.34077
upperback 3.29896 0.809504 -0.500654
thorax 13.8764 -0.105206 3.28657
lowerneck -2.52349 -1.17254 -1.78472
upperneck 20.6555 -4.0028 4.52596
head 6.81804 -2.31977 1.42131
rclavicle 2.03754e-015 -1.23246e-014
rhumerus -29.2195 -12.6712 -81.449
rradius 42.3021
rwrist -5.71122
rhand -7.37748 -53.4708
rfingers 7.12502
rthumb 18.5077 -82.6104
lclavicle 2.03754e-015 -1.23246e-014
lhumerus -33.4982 6.02899 79.6526
lradius 25.6117
lwrist -4.79143
lhand -20.829 -13.8851
lfingers 7.12502
lthumb 5.53949 16.0225
rfemur -19.8104 8.81528 20.7562
rtibia 10.9306
rfoot -18.0139 -9.03661
rtoes -33.1687
lfemur -74.8224 -2.83838 -21.5061
ltibia 77.905
lfoot -16.8155 5.56727
ltoes -20.4519
573
root 9.03849 16.3695 3.05442 -161.264 1.47083 177.674
lowerback -17.9039 -0.568316 -6.35531
upperback 3.38941 0.818358 -0.545116
thorax 13.8987 -0.102028 3.24557
lowerneck -2.3014 -1.0753 -1.32238
upperneck 20.0006 -3.66523 3.95472
head 6.54035 -2.14303 1.19101
rclavicle -3.08116e-015 5.96354e-015
rhumerus -28.7121 -12.0578 -81.82
rradius 42.4397
rwrist -5.74955
rhand -7.52775 -52.4198
rfingers 7.12502
rthumb 18.3632 -81.573
lclavicle -3.08116e-015 5.96354e-015
lhumerus -33.0878 6.30427 79.4976
lradius 25.0994
lwrist -4.74063
lhand -20.8606 -14.0506
lfingers 7.12502
lthumb 5.50894 15.8578
rfemur -19.5391 8.74913 20.7985
rtibia 11.0598
rfoot -18.387 -9.01694
rtoes -33.3668
lfemur -74.9662 -2.88114 -21.2739
ltibia 76.2677
lfoot -16.5717 5.39537
ltoes -19.7044
